<svg width="35.826382" height="4.5733671" xmlns="http://www.w3.org/2000/svg">
 <defs>
  <rect id="rect860" height="8.31548" width="39.12054" y="89.29688" x="127.28348"/>
  <mask id="logo-type-mask">
   <rect id="rect833" fill="#ffffff" height="129" width="520" y="0" x="0" class="logo__mask"/>
  </mask>
 </defs>
 <metadata id="metadata5">image/svg+xml</metadata>
 <g>
  <title>background</title>
  <rect fill="none" id="canvas_background" height="602" width="802" y="-1" x="-1"/>
 </g>
 <g>
  <title>Layer 1</title>
  <g display="none" id="layer1">
   <g transform="matrix(0.05732639,0,0,0.05732639,127.18899,80.184499) " id="g855">
    <path id="path838" d="m-2151.88172,-1455.09593c-9.005,8.85 -18.485,12.324 -30.018,12.324c-22.592,0.001 -41.393,-13.586 -41.393,-41.235c0,-27.649 18.801,-41.235 41.393,-41.235c11.059,0 19.591,3.16 28.123,11.534l-12.166,12.796c-4.582,-4.107 -10.269,-6.162 -15.641,-6.162c-12.956,0 -22.435,9.48 -22.435,23.067c0,14.851 10.111,22.75 22.118,22.75c6.162,0 12.323,-1.737 17.063,-6.478l12.956,12.639zm83.576,-28.911c0,22.435 -15.325,40.603 -40.603,40.603c-25.279,0 -40.445,-18.168 -40.445,-40.603c0,-22.277 15.483,-40.604 40.287,-40.604c24.804,0 40.761,18.327 40.761,40.604zm-61.773,0c0,11.849 7.11,22.908 21.171,22.908c14.062,0 21.17,-11.06 21.17,-22.908c0,-11.691 -8.215,-23.067 -21.17,-23.067c-13.903,0 -21.171,11.376 -21.171,23.067zm151.987,-71.569l0,110.435l-18.01,0l-1.264,-10.744c-6.004,9.32 -15.641,12.48 -25.12,12.48c-22.909,0 -40.13,-15.166 -40.13,-40.76c0,-26.859 16.905,-40.762 39.655,-40.762c8.217,0 21.013,4.424 25.595,12.481l0,-43.13l19.274,0zm-65.249,71.412c0,13.586 9.795,22.907 22.118,22.907c12.166,0 22.593,-8.848 22.593,-22.907c0,-13.587 -10.427,-22.75 -22.593,-22.75c-12.322,-0.001 -22.118,8.689 -22.118,22.75zm81.999,-39.183l0,78.205l19.275,0l0,-78.205l-19.275,0zm87.528,21.013c-5.529,-5.213 -11.851,-6.951 -19.275,-6.951c-9.163,0 -14.219,2.843 -14.219,7.741c0,5.056 4.582,7.9 14.535,8.531c14.691,0.948 33.336,4.267 33.336,24.963c0,13.744 -11.217,25.595 -33.494,25.595c-12.323,0 -24.646,-2.054 -36.021,-13.902l9.479,-13.746c5.531,6.162 18.171,10.744 26.859,10.9c7.268,0.158 14.062,-3.633 14.062,-9.32c0,-5.371 -4.426,-7.584 -15.482,-8.217c-14.695,-1.104 -32.23,-6.477 -32.23,-24.171c0,-18.011 18.642,-24.33 32.861,-24.33c12.166,0 21.328,2.37 30.334,10.269l-10.745,12.638zm52.297,-47.923l0,27.385l21.484,0l0,16.588l-21.645,0l0,33.652c0,7.425 4.105,11.06 10.11,11.06c3.002,0 6.478,-0.947 9.322,-2.369l5.371,16.431c-5.53,2.213 -10.111,3.16 -15.958,3.317c-16.903,0.633 -27.964,-9.006 -27.964,-28.438l0,-33.653l-14.534,0l0,-16.588l14.538,0l0,-20.065l19.276,-7.32zm93.687,27.227l18.484,0l0,77.888l-18.168,0l-0.948,-11.376c-4.423,9.163 -16.59,13.589 -25.277,13.746c-23.066,0.156 -40.131,-14.062 -40.131,-41.393c0,-26.86 17.854,-40.92 40.604,-40.763c10.426,0 20.381,4.898 24.804,12.64l0.632,-10.742zm-46.766,38.866c0,14.851 10.27,23.697 23.067,23.697c30.334,0 30.334,-47.238 0,-47.238c-12.797,0 -23.067,8.69 -23.067,23.541z" mask="url(#logo-type-mask)" class="logo__type"/>
    <g id="g842" class="logo__cursorgroup">
     <rect id="rect840" height="20" width="74" y="-1445.57593" x="-1697.29272" class="logo__cursor"/>
    </g>
   </g>
  </g>
  <g id="layer2">
   <g font-size="5.29167px" font-family="sans-serif" text-anchor="middle" id="text858">
    <path id="path864" d="m1.01803,4.19872l0,-1.16014l0.59944,0c0.47801,0 0.89401,-0.14728 1.21182,-0.43667c0.30489,-0.2868 0.45992,-0.64595 0.45992,-1.06195c0,-0.41341 -0.15503,-0.77256 -0.45992,-1.06453c-0.31265,-0.29198 -0.71831,-0.44184 -1.18856,-0.44184l-1.64073,0l0,4.16513l1.01803,0zm1.21439,-2.65876c0,0.28681 -0.29197,0.49093 -0.58911,0.49093l-0.58911,0l0,-0.98702l0.58653,0c0.29972,0 0.59169,0.20929 0.59169,0.49609z"/>
    <path id="path866" d="m4.14981,0.6227c-0.42892,0.416 -0.64596,0.91985 -0.64596,1.49604c0,0.58136 0.21704,1.08262 0.64596,1.49345c0.45216,0.40824 0.92759,0.61495 1.56838,0.61495c0.64078,0 1.11621,-0.20412 1.57096,-0.61237c0.4315,-0.41083 0.65112,-0.91209 0.65112,-1.49603c0,-0.57878 -0.21962,-1.08262 -0.65112,-1.49604c-0.45475,-0.41082 -0.93276,-0.6227 -1.57096,-0.6227c-0.63562,0 -1.11363,0.21188 -1.56838,0.6227zm2.36936,0.72348c0.24805,0.21704 0.36949,0.46767 0.36949,0.76739c0,0.30489 -0.12144,0.55552 -0.36949,0.76998c-0.24546,0.21187 -0.45734,0.31781 -0.80098,0.31781c-0.34624,0 -0.55811,-0.10594 -0.80099,-0.31781c-0.24546,-0.21446 -0.3669,-0.46767 -0.3669,-0.76998c0,-0.29714 0.12144,-0.55035 0.3669,-0.76739c0.2403,-0.21446 0.45217,-0.3204 0.80099,-0.3204c0.34623,0 0.55552,0.10594 0.80098,0.3204z"/>
    <path id="path868" d="m9.32797,4.19872l0,-1.62523l1.23765,1.62523l1.24024,0l-1.00252,-1.49345c0.19637,-0.08785 0.30747,-0.17829 0.43925,-0.35657c0.18603,-0.25063 0.27905,-0.52193 0.27905,-0.81132l0,-0.10335c0,-0.46768 -0.16537,-0.71572 -0.42892,-0.96894c-0.15502,-0.14469 -0.33331,-0.25321 -0.53743,-0.32556c-0.23254,-0.06976 -0.47542,-0.10594 -0.72347,-0.10594l-1.52446,0l0.003,4.16513l1.01761,0zm0.59687,-2.18333l-0.21963,0l0,-0.0026l-0.37982,0l0,-0.96894l0.44442,0c0.1912,0 0.42374,0.05168 0.53226,0.13953c0.10853,0.09819 0.16279,0.20929 0.16279,0.33848c0,0.2868 -0.26097,0.49351 -0.54002,0.49351l0,0.00002z"/>
    <path id="path870" d="m11.91715,1.04387l1.06454,0l0.0129,3.15485l1.14981,0l-0.0413,-3.15485l1.06454,0l0,-1.01028l-3.25045,0l-0.00004,1.01028z"/>
    <path id="path872" d="m15.53727,4.20388l1.06454,0l0,-1.5813l1.3901,0l0,-1.01544l-1.3901,0l0,-0.56844l1.80867,0l0,-1.01544l-2.87321,0l0,4.18062z"/>
    <path id="path874" d="m19.18323,0.6227c-0.42891,0.416 -0.64595,0.91985 -0.64595,1.49604c0,0.58136 0.21704,1.08262 0.64595,1.49345c0.45217,0.40824 0.9276,0.61495 1.56838,0.61495c0.64079,0 1.11622,-0.20412 1.57097,-0.61237c0.4315,-0.41083 0.65112,-0.91209 0.65112,-1.49603c0,-0.57878 -0.21962,-1.08262 -0.65112,-1.49604c-0.45475,-0.41082 -0.93276,-0.6227 -1.57097,-0.6227c-0.63562,0 -1.11362,0.21188 -1.56838,0.6227zm2.36937,0.72348c0.24805,0.21704 0.36949,0.46767 0.36949,0.76739c0,0.30489 -0.12144,0.55552 -0.36949,0.76998c-0.24546,0.21187 -0.45734,0.31781 -0.80099,0.31781c-0.34623,0 -0.5581,-0.10594 -0.80098,-0.31781c-0.24546,-0.21446 -0.3669,-0.46767 -0.3669,-0.76998c0,-0.29714 0.12144,-0.55035 0.3669,-0.76739c0.24029,-0.21446 0.45217,-0.3204 0.80098,-0.3204c0.34624,0 0.55553,0.10594 0.80099,0.3204z"/>
    <path id="path876" d="m23.34337,4.19872l2.87322,0l0,-1.01286l-1.85519,0l0,-3.15227l-1.01803,0l0,4.16513z"/>
    <path id="path878" d="m27.60429,4.19872l0,-4.16513l-1.01803,0l0,4.16513l1.01803,0z"/>
    <path id="path880" d="m28.61991,0.6227c-0.42891,0.416 -0.64595,0.91985 -0.64595,1.49604c0,0.58136 0.21704,1.08262 0.64595,1.49345c0.45217,0.40824 0.9276,0.61495 1.56839,0.61495c0.64078,0 1.11621,-0.20412 1.57096,-0.61237c0.4315,-0.41083 0.65112,-0.91209 0.65112,-1.49603c0,-0.57878 -0.21962,-1.08262 -0.65112,-1.49604c-0.45475,-0.41082 -0.93276,-0.6227 -1.57096,-0.6227c-0.63563,0 -1.11363,0.21188 -1.56839,0.6227zm2.36937,0.72348c0.24805,0.21704 0.36949,0.46767 0.36949,0.76739c0,0.30489 -0.12144,0.55552 -0.36949,0.76998c-0.24546,0.21187 -0.45734,0.31781 -0.80098,0.31781c-0.34624,0 -0.55811,-0.10594 -0.80099,-0.31781c-0.24546,-0.21446 -0.3669,-0.46767 -0.3669,-0.76998c0,-0.29714 0.12144,-0.55035 0.3669,-0.76739c0.2403,-0.21446 0.45217,-0.3204 0.80099,-0.3204c0.34623,0 0.55552,0.10594 0.80098,0.3204z"/>
    <path id="path882" d="m32.52167,4.57337l3.30471,0l0,-0.75189l-3.30471,0l0,0.75189z"/>
   </g>
  </g>
 </g>
</svg>